# xmcd
#
# Track frame offsets:
#	150
#	17935
#	36977
#	52621
#	69629
#	82784
#	113628
#	131231
#	156982
#	177110
#	202562
#	219601
#	236898
#	253930
#	272971
#	297917
#	317362
#
# Disc length: 4498 seconds
#
# Revision: 0
# Processed by: cddbd v1.5.2PL0 Copyright (c) Steve Scherf et al.
# Submitted via: audiograbber 1.83.01
#
DISCID=f1119011
DTITLE=Various Artist - zillo 02-12
DYEAR=2012
DGENRE=Gothic
TTITLE0=eisbrecher - herz aus eis
TTITLE1=megaherz - jagdzeit
TTITLE2=constance rudert and chris glen - in willows
TTITLE3=omnia - fee ra huri
TTITLE4=mental defect - may the force be with you
TTITLE5=merciful nons - all days are black
TTITLE6=monica richards - pride
TTITLE7=widukind - zu leben
TTITLE8=eden weint im grab - friedhof der sterne
TTITLE9=adversus - gespinste
TTITLE10=schlagwerk - tanz
TTITLE11=remember twilight - künstler der dekadenz
TTITLE12=nova-spes - wir wollen jetzt
TTITLE13=kultasiipi - metsola
TTITLE14=blood and tears - lass mich sterben
TTITLE15=the pressure cell - through these lights
TTITLE16=under[base] - stay closer
EXTD=
EXTT0=
EXTT1=
EXTT2=
EXTT3=
EXTT4=
EXTT5=
EXTT6=
EXTT7=
EXTT8=
EXTT9=
EXTT10=
EXTT11=
EXTT12=
EXTT13=
EXTT14=
EXTT15=
EXTT16=
PLAYORDER=
